<?xml version="1.0" encoding="UTF-8"?>
<svg xmlns="http://www.w3.org/2000/svg" version="1.1" viewBox="0 0 1006.3 1006.3">
  <defs>
    <style>
      .cls-1 {
        fill: #62a2e2;
      }

      .cls-2 {
        fill: #3c3c3c;
      }

      .cls-3 {
        display: none;
      }

      .cls-4 {
        fill: #b4b7ba;
      }

      .cls-5 {
        fill: #234164;
      }

      .cls-6 {
        fill: #f3efe9;
      }
    </style>
  </defs>
  <!-- Generator: Adobe Illustrator 28.7.1, SVG Export Plug-In . SVG Version: 1.2.0 Build 142)  -->
  <g>
    <g id="Camada_1">
      <g id="Layer-1">
        <path class="cls-2" d="M-3030.8,61.3c-15.1,0-13.1,0-13.1,0,0,0,.1-1.1-.5,29.6-.6,29.7-.4,29.7-.4,29.7,0,0-.2.2-28.4.2-30.1,0-29.2,0-29.2,0,0,0,0-2.4-.2,21.3s-.2,20.8-.2,20.8c0,0,11.7.4,30,.3,27.8-.2,18.8,0,27.9,0,0,9.1.1-65-.2,27.7-.1,31,0,30.8,0,30.8,0,0,7.9,0,23.8,0,21.7,0,21.6.1,21.6.1,0-4,0,.1.2-29.6.3-30.4.2-28.9.2-28.9,0,0,0,0,28.9.4,27.8.3,27.8.6,27.8.6,0,0,0,1.2.2-25.4.2-19.8,0-18.6,0-18.6,0,0,1.5,0-28.2,0-28.4,0-28.3.1-28.3.1,0,0-.1,3.7.3-29.8.4-36.8.3-27.7.3-28.5,0,0-8.9-.4-17.4-.4-6.2,0-7.5,0-15.1-.1h0ZM-2768.6,148.8c-10.4,1.5-22.7,4.4-37.1,8.9-14.3,4.4-27.2,9.4-38.5,14.8-11.4,5.4-23,12.4-34.8,20.8s-23.7,18.8-35.6,31.1-21.2,23.5-28.2,33.4-13.1,20.8-18.5,32.6c-5.4,11.9-9.9,23.7-13.3,35.6-3.5,11.9-5.9,22.7-7.4,32.6-1.5,9.9-2.2,21.2-2.2,34.1s1.5,27.2,4.4,43c3,15.8,6.2,28.2,9.6,37.1,3.5,8.9,7.4,17.3,11.9,25.2s12.6,19.3,24.5,34.1c11.9,14.8,26.9,31.4,45.2,49.7,9.1,9.1,18.3,18.3,27.4,27.4,60.5-60.5,121.1-121.1,181.6-181.6,121.1-121.1,189-187,203.8-197.9s25.7-18,32.6-21.5c6.9-3.5,17.1-6.9,30.4-10.4s25.4-5.4,36.3-5.9c10.9-.5,24.7.7,41.5,3.7,16.8,3,32.1,7.4,45.9,13.3,13.8,5.9,27.4,13.6,40.8,23,13.3,9.4,24.5,18.8,33.3,28.2s16.6,19.8,23,31.1c6.4,11.4,11.4,21.7,14.8,31.1s6.4,20,8.9,31.9,3.7,24.7,3.7,38.5-1.5,27.2-4.4,40c-3,12.9-7.7,25.7-14.1,38.5-6.4,12.9-17.1,27.9-31.9,45.2-14.8,17.3-43.2,47.2-85.2,89.7s-68.9,69.4-80.8,80.8c-11.9,11.4-24,21.7-36.3,31.1s-23.5,16.8-33.3,22.2-20,9.9-30.4,13.3-29.7,9.2-54.4,10.1-41.8-3.2-54.6-5.7c-12.8-2.5-24.9-5.7-36.3-9.6-11.4-4-24-9.9-37.8-17.8-13.8-7.9-27.7-17.5-41.5-28.9-13.8-11.4-15.4-14.4-22.9-15.7s-12-.5-15.9,3c-3.9,3.5-6.3,7.3-6.8,12.8-.5,5.4,1.6,12,5.6,16.9,3.9,4.9,37.3,38.8,100.1,101.5,62.8,62.8,94.9,94.1,96.4,94.1s62.8-60,183.8-180.1c121.1-120.1,186-185.5,194.9-196.4,8.9-10.9,17.1-23.2,24.5-37.1,7.4-13.8,13.3-30.1,17.8-48.9,4.4-18.8,6.7-36.3,6.7-52.6s-1.7-34.6-5.2-54.9-8.2-37.8-14.1-52.6c-5.9-14.8-12.8-27.7-20.8-38.5-7.9-10.9-18-22.2-30.4-34.1s-25.9-22.5-40.8-31.9c-14.8-9.4-28.9-16.8-42.2-22.2-13.3-5.4-26.9-9.6-40.8-12.6s-25.7-4.7-35.6-5.2c-9.9-.5-24.7.5-44.5,3-19.8,2.5-38.1,6.9-54.8,13.3-16.8,6.4-34.3,15.8-52.6,28.2-18.3,12.4-67.9,59-149,140.1s-125.5,124.3-133.4,129.7c-7.9,5.4-15.8,9.4-23.7,11.9-7.9,2.5-18,4-30.4,4.5-12.3.5-20.8.2-25.2-.7s-10.4-3.2-17.8-6.7c-7.4-3.5-14.3-8.1-20.8-14.1s-11.9-12.6-16.3-20c-4.4-7.4-7.9-15.8-10.4-25.2s-3.5-20.8-3-34.1,2.7-27.2,6.7-41.5c3.9-14.3,9.6-27.9,17.1-40.8,7.4-12.9,15.6-24.2,24.5-34.1s17.8-18.3,26.7-25.2,18.5-13.1,28.9-18.5c10.4-5.4,25.4-10.6,45.2-15.6,19.8-4.9,36.6-7.4,50.4-7.4s26.4,1.2,37.8,3.7c11.4,2.5,24.2,6.4,38.5,11.9,14.3,5.4,14.6,7.4,29.7,14.1,6.3,2.8,13.5,5.6,23.1,1.8,5.5-2.2,10.8-8.6,11.2-17,.5-11.8-6.7-19.6-25-28.4-18.3-8.8-33.1-15.5-49.3-21-16.3-5.4-34.6-8.9-54.8-10.4-20.3-1.5-35.6-1.5-45.9,0h0ZM-2223.4,848.3c.3,5.2-.4,17.5-.4,38.7s-1.3,30,0,31.9,5.7,1.6,6.8.1.9-12.2,1.4-36.5c.2-10.3.4-17.8.7-23.6.3-7.2-.4-12.3,1.6-12.3,3.5,0,8.7.5,11.6,3.1s3.7,3.9,4.2,7.3c.4,3.4-1,5.8-3,7.8-2,2-3,2.5-5.5,4-2.4,1.5-3.8,2.1-4.3,3.6s.4,9,7.3,22.8c6.9,13.8,11.2,20.7,12.6,22.2,1.4,1.5,3.5,1.1,4.2.8.6-.3,2.1-1,1.6-4-.5-3-4.5-10.4-9.4-19.8-4.9-9.4-8.2-15.3-8.2-17.3s2.5-4.5,6-7.9,5.2-7.7,5.2-12.6-1.6-10.4-6-13.9c-4.4-3.5-8.3-4-15.5-3.9s-11.1,4.3-10.7,9.4h0ZM-2274.9,876.7c-.3,12.7.2,22.3.8,28.9.2,2.5.3,5.2.9,7,.7,2,1.8,2.9,2.7,3.4,3.5,2,7.2,3,11.1,3s7.7-.7,11.1-2.2,6.4-3.5,8.9-5.9,4.2-5.2,5.2-8.2,1.5-7.7,0-13.7c-1.5-5.9-5-9.6-8.9-11.5s-3.9-2-5.9-3c1-1.2,2-2.5,3-3.7,2-2.5,3.2-5.4,3.7-8.9.5-3.5-.5-7.2-3-11.1-.4-.7-.9-1.4-1.4-2-2.1-2.8-4.2-4.5-6.8-6.1-3.1-1.9-7.2-2-12.6-2.2-5.8-.2-7.1-.2-7.4,4.8-.4,6.1-1.2,16.9-1.5,31.6h0ZM-2268.2,846.3c3.5.1,5.1-.1,7.1.2,4.1.7,7.5,3.2,9.5,6.1,2,3,2.1,7,1.6,9.9-.5,3-3.2,4.9-6.3,7.7-3.1,2.7-3.2,3-3.2,4.5s2.1,2.9,6.5,4.6c4.4,1.7,9.6,4.3,11.6,7.8,2,3.5,2.5,7.2,1.5,11.1s-3,6.9-5.9,8.9c-3,2-5.9,3.2-8.9,3.7-3,.5-6.4.3-8.5-.3-2.1-.6-4.2-2.2-4.2-2.2,0,0-1.7-15-1.3-31.5.2-10.1.5-20.3.7-30.4h0ZM-2174.8,914.5v5.9h6.7c2.2,0,3.1,0,5.3,0,.1-2,0-5,0-7,0-5.2-3.3-4.8-6.8-4.8h-5.2v5.9Z"/>
      </g>
      <g id="Layer-1-2" class="cls-3">
        <path class="cls-5" d="M-3005.7,2017.1c-15.1,0-13.1,0-13.1,0,0,0,.1-1.1-.5,29.6-.6,29.7-.4,29.7-.4,29.7,0,0-.2.2-28.4.2-30.1,0-29.2,0-29.2,0,0,0,0-2.4-.2,21.3s-.2,20.8-.2,20.8c0,0,11.7.4,30,.3,27.8-.2,18.8,0,27.9,0,0,9.1.1-65-.2,27.7-.1,31,0,30.8,0,30.8,0,0,7.9,0,23.8,0,21.7,0,21.6.1,21.6.1,0-4,0,.1.2-29.6.3-30.4.2-28.9.2-28.9,0,0,0,0,28.9.4,27.8.3,27.8.6,27.8.6,0,0,0,1.2.2-25.4.2-19.8,0-18.6,0-18.6,0,0,1.5,0-28.2,0-28.4,0-28.3.1-28.3.1,0,0-.1,3.7.3-29.8.4-36.8.3-27.7.3-28.5,0,0-8.9-.4-17.4-.4-6.2,0-7.5,0-15.1-.1h0ZM-2743.4,2104.7c-10.4,1.5-22.7,4.4-37.1,8.9-14.3,4.4-27.2,9.4-38.5,14.8-11.4,5.4-23,12.4-34.8,20.8s-23.7,18.8-35.6,31.1c-11.9,12.4-21.2,23.5-28.2,33.4-6.9,9.9-13.1,20.8-18.5,32.6-5.4,11.9-9.9,23.7-13.3,35.6s-5.9,22.7-7.4,32.6c-1.5,9.9-2.2,21.2-2.2,34.1s1.5,27.2,4.4,43c3,15.8,6.2,28.2,9.6,37.1,3.5,8.9,7.4,17.3,11.9,25.2s12.6,19.3,24.5,34.1c11.9,14.8,26.9,31.4,45.2,49.7,9.1,9.1,18.3,18.3,27.4,27.4,60.5-60.5,121.1-121.1,181.6-181.6,121.1-121.1,189-187,203.8-197.9,14.8-10.9,25.7-18,32.6-21.5s17.1-6.9,30.4-10.4,25.4-5.4,36.3-5.9,24.7.7,41.5,3.7c16.8,3,32.1,7.4,45.9,13.3,13.8,5.9,27.4,13.6,40.8,23,13.3,9.4,24.5,18.8,33.4,28.2,8.9,9.4,16.6,19.8,23,31.1,6.4,11.4,11.4,21.7,14.8,31.1s6.4,20,8.9,31.9,3.7,24.7,3.7,38.5-1.5,27.2-4.4,40c-3,12.9-7.7,25.7-14.1,38.5-6.4,12.9-17.1,27.9-31.9,45.2-14.8,17.3-43.2,47.2-85.2,89.7s-68.9,69.4-80.8,80.8c-11.9,11.4-24,21.7-36.3,31.1s-23.5,16.8-33.3,22.2-20,9.9-30.4,13.3c-10.4,3.5-29.7,9.1-54.4,10.1s-41.8-3.2-54.6-5.7-24.9-5.7-36.3-9.6c-11.4-3.9-24-9.9-37.8-17.8-13.8-7.9-27.7-17.5-41.5-28.9-13.8-11.4-15.4-14.4-22.9-15.7s-12-.4-15.9,3c-3.9,3.5-6.3,7.4-6.8,12.8-.5,5.4,1.6,12,5.6,16.9,3.9,4.9,37.3,38.8,100.1,101.5,62.8,62.8,94.9,94.1,96.4,94.1s62.8-60,183.8-180.1c121.1-120.1,186-185.6,194.9-196.4,8.9-10.9,17.1-23.2,24.5-37.1,7.4-13.8,13.3-30.1,17.8-48.9s6.7-36.3,6.7-52.6-1.7-34.6-5.2-54.9-8.1-37.8-14.1-52.6c-5.9-14.8-12.9-27.7-20.8-38.5-7.9-10.9-18-22.2-30.4-34.1-12.4-11.9-25.9-22.5-40.8-31.9-14.8-9.4-28.9-16.8-42.2-22.2-13.3-5.4-26.9-9.6-40.8-12.6-13.8-3-25.7-4.7-35.6-5.2-9.9-.5-24.7.5-44.5,3-19.8,2.5-38.1,6.9-54.8,13.3-16.8,6.4-34.3,15.8-52.6,28.2-18.3,12.4-67.9,59.1-149,140.1s-125.5,124.3-133.4,129.7c-7.9,5.4-15.8,9.4-23.7,11.9-7.9,2.5-18,3.9-30.4,4.4-12.3.5-20.8.2-25.2-.7s-10.4-3.2-17.8-6.7-14.3-8.1-20.8-14.1c-6.4-5.9-11.9-12.6-16.3-20-4.4-7.4-7.9-15.8-10.4-25.2s-3.5-20.8-3-34.1,2.7-27.2,6.7-41.5c3.9-14.3,9.6-27.9,17.1-40.8s15.6-24.2,24.5-34.1c8.9-9.9,17.8-18.3,26.7-25.2s18.5-13.1,28.9-18.5c10.4-5.4,25.4-10.6,45.2-15.6,19.8-4.9,36.6-7.4,50.4-7.4s26.4,1.2,37.8,3.7c11.4,2.5,24.2,6.4,38.5,11.9,14.3,5.4,14.6,7.4,29.7,14.1,6.3,2.8,13.5,5.6,23.1,1.8,5.5-2.2,10.8-8.6,11.2-17,.5-11.8-6.7-19.6-25-28.4-18.3-8.8-33.1-15.5-49.3-21-16.3-5.4-34.6-8.9-54.8-10.4-20.3-1.5-35.6-1.5-45.9,0h0ZM-2198.2,2804.2c.4,5.1-.4,17.5-.4,38.7s-1.3,30.1,0,31.9,5.7,1.6,6.8.1.9-12.2,1.4-36.5c.2-10.3.4-17.8.7-23.6.3-7.2-.4-12.3,1.6-12.3,3.5,0,8.7.5,11.6,3.1,2.9,2.6,3.7,3.9,4.1,7.3.4,3.4-1,5.8-3,7.8s-3,2.5-5.5,4-3.8,2.1-4.3,3.6.4,9,7.3,22.8c6.9,13.8,11.1,20.7,12.6,22.2,1.4,1.6,3.5,1.1,4.2.8s2.1-1,1.6-4-4.5-10.4-9.4-19.8c-4.9-9.4-8.2-15.3-8.2-17.3s2.5-4.5,6-7.9,5.2-7.7,5.2-12.6-1.6-10.4-6-13.9c-4.4-3.5-8.4-4-15.5-3.9-7.1.1-11.1,4.3-10.7,9.4h0ZM-2249.8,2832.6c-.3,12.7.2,22.3.9,28.9.2,2.5.3,5.2.9,7,.6,2,1.8,2.9,2.7,3.4,3.5,2,7.2,3,11.1,3s7.7-.7,11.1-2.2c3.5-1.5,6.4-3.5,8.9-5.9s4.2-5.2,5.2-8.1,1.5-7.7,0-13.7c-1.5-5.9-5-9.6-8.9-11.5s-3.9-2-5.9-3c1-1.2,2-2.5,3-3.7,2-2.5,3.2-5.4,3.7-8.9.5-3.5-.5-7.2-3-11.1-.4-.7-.9-1.4-1.4-2-2.1-2.8-4.2-4.6-6.8-6.1-3.1-1.9-7.2-2.1-12.6-2.2-5.8-.2-7.1-.2-7.4,4.8-.4,6.1-1.2,16.9-1.5,31.6h0ZM-2243.1,2802.2c3.5.1,5.1-.1,7.1.2,4.1.7,7.5,3.2,9.5,6.1,2,3,2.1,7,1.6,9.9-.5,3-3.2,4.9-6.3,7.6s-3.2,3-3.2,4.5,2.1,2.9,6.5,4.6c4.4,1.7,9.6,4.3,11.6,7.8s2.5,7.2,1.5,11.1c-1,3.9-3,6.9-5.9,8.9-3,2-5.9,3.2-8.9,3.7-3,.5-6.4.3-8.5-.3-2.1-.6-4.2-2.2-4.2-2.2,0,0-1.7-15-1.3-31.5.2-10.1.5-20.3.7-30.4h0ZM-2149.7,2870.4v5.9h6.7c2.2,0,3.1,0,5.3,0,.1-2,0-5,0-7,0-5.2-3.4-4.8-6.8-4.8h-5.2v5.9h0Z"/>
      </g>
      <g id="Layer-1-3">
        <path class="cls-5" d="M-4065.5,77.3c-15.1,0-13.1,0-13.1,0,0,0,.1-1.1-.5,29.6-.6,29.7-.4,29.7-.4,29.7,0,0-.2.2-28.4.2-30.1,0-29.2,0-29.2,0,0,0,0-2.4-.2,21.3s-.2,20.8-.2,20.8c0,0,11.7.4,30,.3,27.9-.2,18.8,0,27.9,0,0,9.1.1-65-.2,27.7-.1,31,0,30.8,0,30.8,0,0,7.9,0,23.8,0,21.7,0,21.6.1,21.6.1,0-4,0,.1.2-29.6.3-30.4.2-28.9.2-28.9,0,0,0,0,28.9.4,27.8.3,27.8.6,27.8.6,0,0,0,1.2.2-25.4.1-19.8,0-18.6,0-18.6,0,0,1.5,0-28.2,0-28.4,0-28.3.1-28.3.1,0,0-.1,3.7.3-29.8.4-36.8.3-27.7.3-28.5,0,0-8.9-.4-17.4-.4-6.2,0-7.5,0-15.1-.1h0ZM-3803.3,164.8c-10.4,1.5-22.7,4.4-37.1,8.9-14.3,4.4-27.2,9.4-38.5,14.8-11.4,5.4-23,12.4-34.8,20.8s-23.7,18.8-35.6,31.1-21.2,23.5-28.2,33.4-13.1,20.8-18.5,32.6c-5.4,11.9-9.9,23.7-13.3,35.6-3.5,11.9-5.9,22.7-7.4,32.6-1.5,9.9-2.2,21.2-2.2,34.1s1.5,27.2,4.4,43c3,15.8,6.2,28.2,9.6,37.1,3.5,8.9,7.4,17.3,11.9,25.2s12.6,19.3,24.5,34.1c11.9,14.8,26.9,31.4,45.2,49.7,9.1,9.1,18.3,18.3,27.4,27.4,60.5-60.5,121.1-121.1,181.6-181.6,121.1-121.1,189-187,203.8-197.9s25.7-18,32.6-21.5c6.9-3.5,17-6.9,30.4-10.4s25.5-5.4,36.3-5.9c10.9-.5,24.7.7,41.5,3.7,16.8,3,32.1,7.4,46,13.3,13.8,5.9,27.4,13.6,40.8,23,13.3,9.4,24.5,18.8,33.3,28.2,8.9,9.4,16.5,19.8,23,31.1,6.4,11.4,11.4,21.7,14.8,31.1s6.4,20,8.9,31.9c2.5,11.9,3.7,24.7,3.7,38.5s-1.5,27.2-4.5,40c-3,12.9-7.7,25.7-14.1,38.5-6.4,12.9-17,27.9-31.9,45.2-14.8,17.3-43.2,47.2-85.2,89.7s-68.9,69.4-80.8,80.8c-11.9,11.4-24,21.7-36.3,31.1-12.3,9.4-23.5,16.8-33.3,22.2s-20,9.9-30.4,13.3-29.7,9.2-54.4,10.1c-24.7,1-41.8-3.2-54.6-5.7-12.9-2.5-25-5.7-36.3-9.6-11.4-4-24-9.9-37.8-17.8-13.8-7.9-27.7-17.5-41.5-28.9-13.8-11.4-15.4-14.4-22.9-15.7-7.5-1.2-12-.5-15.9,3-4,3.5-6.3,7.3-6.8,12.8-.5,5.4,1.6,12,5.6,16.9,4,4.9,37.3,38.8,100.1,101.5,62.7,62.8,94.9,94.1,96.4,94.1s62.8-60,183.8-180.1c121.1-120.1,186-185.5,194.9-196.4,8.9-10.9,17-23.2,24.5-37.1,7.4-13.8,13.3-30.1,17.8-48.9,4.5-18.8,6.7-36.3,6.7-52.6s-1.7-34.6-5.2-54.9-8.2-37.8-14.1-52.6c-5.9-14.8-12.8-27.7-20.8-38.5-7.9-10.9-18-22.2-30.4-34.1-12.3-11.9-25.9-22.5-40.8-31.9-14.8-9.4-28.9-16.8-42.2-22.2-13.3-5.4-26.9-9.6-40.8-12.6s-25.7-4.7-35.6-5.2c-9.9-.5-24.7.5-44.5,3-19.8,2.5-38,6.9-54.8,13.3s-34.3,15.8-52.6,28.2c-18.3,12.4-67.9,59-149,140.1-81,81-125.5,124.3-133.4,129.7-7.9,5.4-15.8,9.4-23.7,11.9-7.9,2.5-18,4-30.4,4.5-12.4.5-20.8.2-25.2-.7s-10.4-3.2-17.8-6.7c-7.4-3.5-14.3-8.1-20.8-14.1s-11.9-12.6-16.3-20-7.9-15.8-10.4-25.2-3.5-20.8-3-34.1,2.7-27.2,6.7-41.5c3.9-14.3,9.6-27.9,17.1-40.8,7.4-12.9,15.6-24.2,24.5-34.1,8.9-9.9,17.8-18.3,26.7-25.2s18.5-13.1,28.9-18.5c10.4-5.4,25.5-10.6,45.2-15.6,19.8-4.9,36.6-7.4,50.4-7.4s26.4,1.2,37.8,3.7c11.4,2.5,24.2,6.4,38.5,11.9,14.3,5.4,14.6,7.4,29.6,14.1,6.3,2.8,13.5,5.6,23.1,1.8,5.5-2.2,10.8-8.6,11.2-17,.5-11.8-6.7-19.6-25-28.4-18.3-8.8-33-15.5-49.4-21-16.3-5.4-34.6-8.9-54.9-10.4-20.3-1.5-35.6-1.5-46,0h0ZM-3258.1,864.4c.3,5.2-.4,17.5-.4,38.7s-1.3,30,0,31.9,5.7,1.6,6.8.1.9-12.2,1.4-36.5c.2-10.3.4-17.8.7-23.6.3-7.2-.4-12.3,1.6-12.3,3.5,0,8.7.5,11.6,3.1s3.7,3.9,4.2,7.3c.4,3.4-1,5.8-3,7.8-2,2-3,2.5-5.5,4-2.5,1.5-3.8,2.1-4.3,3.6s.4,9,7.3,22.8c6.9,13.8,11.2,20.7,12.6,22.2,1.5,1.5,3.5,1.1,4.2.8.6-.3,2.1-1,1.6-4s-4.5-10.4-9.4-19.8-8.2-15.3-8.2-17.3,2.5-4.5,6-7.9,5.2-7.7,5.2-12.6-1.6-10.4-6-13.9c-4.5-3.5-8.3-4-15.5-3.9s-11.1,4.3-10.7,9.4h0ZM-3309.6,892.7c-.3,12.7.2,22.3.8,28.9.2,2.5.3,5.2.9,7,.7,2,1.8,2.9,2.7,3.4,3.5,2,7.2,3,11.1,3s7.7-.7,11.1-2.2,6.4-3.5,8.9-5.9c2.5-2.5,4.2-5.2,5.2-8.2s1.5-7.7,0-13.7c-1.5-5.9-5-9.6-9-11.5-2-1-4-2-5.9-3,1-1.2,2-2.5,3-3.7,2-2.5,3.2-5.4,3.7-8.9.5-3.5-.5-7.2-3-11.1-.5-.7-.9-1.4-1.4-2-2.1-2.8-4.2-4.5-6.8-6.1-3.1-1.9-7.2-2-12.6-2.2-5.8-.2-7-.2-7.4,4.8-.4,6.1-1.2,16.9-1.5,31.6h0ZM-3303,862.3c3.5.1,5.1-.1,7.1.2,4.1.7,7.5,3.2,9.5,6.1,2,3,2,7,1.5,9.9-.5,3-3.2,4.9-6.3,7.7-3.1,2.7-3.2,3-3.2,4.5s2.1,2.9,6.5,4.6c4.4,1.7,9.6,4.3,11.5,7.8s2.5,7.2,1.5,11.1-3,6.9-5.9,8.9c-3,2-5.9,3.2-8.9,3.7-3,.5-6.4.3-8.5-.3-2.1-.6-4.2-2.2-4.2-2.2,0,0-1.7-15-1.3-31.5.2-10.1.5-20.3.7-30.4h0ZM-3209.6,930.5v5.9h6.7c2.2,0,3.1,0,5.3,0,.1-2,0-5,0-7,0-5.2-3.3-4.8-6.8-4.8h-5.2v5.9Z"/>
      </g>
      <g id="Layer-1-4">
        <path class="cls-1" d="M84.9,74c-15.1,0-13.1,0-13.1,0,0,0,.1-1.1-.5,29.6-.6,29.7-.4,29.6-.4,29.6,0,0-.2.2-28.3.2-30,0-29.2,0-29.2,0,0,0,0-2.4-.2,21.3-.2,23.7-.2,20.7-.2,20.7,0,0,11.7.4,29.9.3,27.8-.2,18.8,0,27.9,0,0,9.1.1-64.9-.2,27.7-.1,30.9,0,30.8,0,30.8,0,0,7.9,0,23.8,0,21.7,0,21.6.1,21.6.1,0-4,0,.1.2-29.5.3-30.4.2-28.9.2-28.9,0,0,0,0,28.9.3,27.8.3,27.8.6,27.8.6,0,0,0,1.2.2-25.4.1-19.8,0-18.6,0-18.6,0,0,1.5,0-28.2,0-28.3,0-28.2.1-28.2.1,0,0-.1,3.7.3-29.7.4-36.8.3-27.7.3-28.5,0,0-8.9-.4-17.3-.4-6.2,0-7.5,0-15.1-.1h0ZM346.9,161.5c-10.4,1.5-22.7,4.4-37,8.9-14.3,4.4-27.1,9.4-38.5,14.8-11.4,5.4-22.9,12.3-34.8,20.7s-23.7,18.8-35.5,31.1c-11.9,12.3-21.2,23.4-28.1,33.3s-13.1,20.7-18.5,32.6-9.9,23.7-13.3,35.5c-3.5,11.8-5.9,22.7-7.4,32.6s-2.2,21.2-2.2,34.1,1.5,27.2,4.4,42.9c3,15.8,6.2,28.1,9.6,37s7.4,17.3,11.9,25.2,12.6,19.2,24.4,34.1,26.9,31.3,45.2,49.6c9.1,9.1,18.3,18.3,27.4,27.4,60.5-60.5,120.9-120.9,181.4-181.4,121-120.9,188.8-186.8,203.6-197.7,14.8-10.9,25.7-18,32.6-21.5,6.9-3.5,17-6.9,30.4-10.4,13.3-3.5,25.4-5.4,36.3-5.9s24.7.7,41.5,3.7c16.8,3,32.1,7.4,45.9,13.3,13.8,5.9,27.4,13.6,40.7,23,13.3,9.4,24.4,18.8,33.3,28.1,8.9,9.4,16.5,19.8,23,31.1,6.4,11.3,11.3,21.7,14.8,31.1s6.4,20,8.9,31.8c2.5,11.8,3.7,24.7,3.7,38.5s-1.5,27.2-4.4,40c-3,12.8-7.7,25.7-14.1,38.5-6.4,12.8-17,27.9-31.8,45.2s-43.2,47.1-85.2,89.6c-42,42.4-68.9,69.4-80.7,80.7-11.8,11.3-23.9,21.7-36.3,31.1-12.3,9.4-23.5,16.8-33.3,22.2-9.9,5.4-20,9.9-30.4,13.3s-29.6,9.1-54.3,10.1c-24.7,1-41.7-3.2-54.5-5.7-12.8-2.5-24.9-5.7-36.3-9.6s-23.9-9.9-37.8-17.8-27.6-17.5-41.5-28.9c-13.8-11.3-15.4-14.4-22.9-15.7s-12-.4-15.9,3c-4,3.5-6.3,7.3-6.8,12.8-.5,5.4,1.6,12,5.6,16.9,4,4.9,37.3,38.8,100,101.4,62.7,62.7,94.8,94,96.3,94s62.7-60,183.6-179.9c121-120,185.9-185.4,194.8-196.2s17-23.2,24.4-37c7.4-13.8,13.3-30.1,17.8-48.9s6.7-36.3,6.7-52.6-1.7-34.6-5.2-54.8c-3.5-20.2-8.1-37.8-14.1-52.6-5.9-14.8-12.8-27.7-20.7-38.5-7.9-10.9-18-22.2-30.4-34.1-12.3-11.8-25.9-22.5-40.7-31.8s-28.9-16.8-42.2-22.2c-13.3-5.4-26.9-9.6-40.7-12.6-13.8-3-25.7-4.7-35.5-5.2-9.9-.5-24.7.5-44.4,3s-38,6.9-54.8,13.3c-16.8,6.4-34.3,15.8-52.6,28.1-18.3,12.3-67.9,59-148.8,139.9s-125.4,124.2-133.3,129.6c-7.9,5.4-15.8,9.4-23.7,11.8-7.9,2.5-18,3.9-30.4,4.4s-20.7.2-25.2-.7c-4.4-1-10.4-3.2-17.8-6.7-7.4-3.5-14.3-8.2-20.7-14.1-6.4-5.9-11.9-12.6-16.3-20-4.4-7.4-7.9-15.8-10.4-25.2s-3.5-20.7-3-34.1c.5-13.3,2.7-27.2,6.7-41.5,3.9-14.3,9.6-27.9,17-40.7,7.4-12.8,15.6-24.2,24.4-34.1,8.9-9.9,17.8-18.3,26.7-25.2s18.5-13.1,28.9-18.5,25.4-10.6,45.2-15.6c19.8-4.9,36.5-7.4,50.4-7.4s26.4,1.2,37.8,3.7,24.2,6.4,38.5,11.8c14.3,5.4,14.5,7.3,29.6,14.1,6.3,2.8,13.5,5.7,23,1.8,5.5-2.2,10.8-8.6,11.2-17,.5-11.8-6.7-19.6-24.9-28.3-18.3-8.8-33-15.5-49.3-20.9-16.3-5.4-34.6-8.9-54.8-10.4s-35.5-1.5-45.9,0h0ZM891.6,860.3c.3,5.2-.4,17.5-.4,38.7s-1.3,30,0,31.8c1.3,1.8,5.7,1.6,6.7.1s.9-12.2,1.4-36.4c.2-10.3.4-17.8.7-23.6.3-7.2-.4-12.3,1.6-12.3,3.5,0,8.7.5,11.6,3.1,2.9,2.6,3.7,3.9,4.1,7.3.4,3.4-1,5.8-3,7.8-2,2-3,2.5-5.5,4s-3.8,2.1-4.3,3.6.4,8.9,7.3,22.8c6.9,13.8,11.1,20.7,12.6,22.2,1.5,1.6,3.5,1.1,4.2.8.6-.3,2.1-1,1.6-4-.5-3-4.5-10.4-9.4-19.8-4.9-9.4-8.2-15.3-8.2-17.3s2.5-4.5,6-7.9c3.5-3.5,5.2-7.7,5.2-12.6s-1.6-10.4-6-13.9-8.3-4-15.5-3.9c-7.1.1-11,4.3-10.7,9.4h0ZM840.1,888.7c-.3,12.7.2,22.3.8,28.8.2,2.5.3,5.2.9,6.9.7,2,1.8,2.9,2.7,3.4,3.5,2,7.2,3,11.1,3s7.7-.7,11.1-2.2c3.5-1.5,6.4-3.5,8.9-5.9,2.5-2.5,4.2-5.2,5.2-8.2,1-3,1.5-7.7,0-13.7-1.5-5.9-5-9.6-8.9-11.5-2-1-4-2-5.9-3,1-1.2,2-2.5,3-3.7,2-2.5,3.2-5.4,3.7-8.9s-.5-7.2-3-11.1c-.5-.7-.9-1.4-1.4-2-2-2.8-4.2-4.6-6.8-6.1-3.1-1.9-7.2-2.1-12.6-2.2-5.8-.2-7-.2-7.4,4.8-.4,6.1-1.2,16.9-1.5,31.5h0ZM846.8,858.3c3.5.1,5.1-.1,7.1.2,4.1.7,7.5,3.2,9.5,6.1,2,3,2,7,1.5,9.9-.5,3-3.2,4.9-6.3,7.6-3.1,2.7-3.2,3-3.2,4.5s2.1,2.9,6.5,4.6c4.4,1.7,9.6,4.3,11.5,7.8,2,3.5,2.5,7.2,1.5,11.1s-3,6.9-5.9,8.9c-3,2-5.9,3.2-8.9,3.7-3,.5-6.4.3-8.5-.3-2.1-.6-4.2-2.2-4.2-2.2,0,0-1.7-15-1.3-31.5.2-10.1.5-20.2.7-30.4h0ZM940.1,926.4v5.9h6.7c2.2,0,3.1,0,5.3,0,.1-2,0-5,0-7,0-5.2-3.3-4.8-6.8-4.8h-5.2v5.9h0Z"/>
      </g>
      <g id="Layer-1-5">
        <path class="cls-4" d="M-1990.1,68.6c-15.1,0-13.1,0-13.1,0,0,0,.1-1.1-.5,29.6-.6,29.7-.4,29.6-.4,29.6,0,0-.2.2-28.3.2-30.1,0-29.2,0-29.2,0,0,0,0-2.4-.2,21.3-.2,23.7-.2,20.7-.2,20.7,0,0,11.7.4,29.9.3,27.8-.2,18.8,0,27.9,0,0,9.1.1-64.9-.2,27.6-.1,30.9,0,30.8,0,30.8,0,0,7.9,0,23.8,0,21.7,0,21.6.1,21.6.1,0-4,0,.1.2-29.5.3-30.4.2-28.9.2-28.9,0,0,0,0,28.9.4,27.8.3,27.8.6,27.8.6,0,0,0,1.2.2-25.4.1-19.8,0-18.6,0-18.6,0,0,1.5,0-28.2,0-28.3,0-28.2.1-28.2.1,0,0-.1,3.7.3-29.7.4-36.8.3-27.7.4-28.5,0,0-8.9-.4-17.4-.4-6.2,0-7.5,0-15.1-.1h0ZM-1728,156.1c-10.4,1.5-22.7,4.4-37,8.9-14.3,4.4-27.2,9.4-38.5,14.8s-23,12.3-34.8,20.7c-11.9,8.4-23.7,18.8-35.6,31.1-11.9,12.3-21.2,23.5-28.1,33.3s-13.1,20.7-18.5,32.6-9.9,23.7-13.3,35.5c-3.5,11.9-5.9,22.7-7.4,32.6-1.5,9.9-2.2,21.2-2.2,34.1s1.5,27.1,4.4,43c3,15.8,6.2,28.1,9.6,37,3.5,8.9,7.4,17.3,11.9,25.2,4.4,7.9,12.6,19.3,24.4,34.1,11.9,14.8,26.9,31.3,45.2,49.6,9.1,9.1,18.3,18.3,27.4,27.4,60.5-60.5,121-121,181.4-181.5,121-121,188.9-186.9,203.7-197.7,14.8-10.9,25.7-18,32.6-21.5,6.9-3.5,17-6.9,30.4-10.4,13.3-3.5,25.4-5.4,36.3-5.9,10.9-.5,24.7.7,41.5,3.7,16.8,3,32.1,7.4,45.9,13.3,13.8,5.9,27.4,13.6,40.7,23,13.3,9.4,24.4,18.8,33.3,28.1,8.9,9.4,16.5,19.8,23,31.1s11.4,21.7,14.8,31.1c3.5,9.4,6.4,20,8.9,31.9s3.7,24.7,3.7,38.5-1.5,27.1-4.4,40-7.6,25.7-14.1,38.5c-6.4,12.8-17,27.9-31.9,45.2s-43.2,47.2-85.2,89.6c-42,42.5-68.9,69.4-80.7,80.7s-23.9,21.7-36.3,31.1c-12.3,9.4-23.4,16.8-33.3,22.2-9.9,5.4-20,9.9-30.4,13.3-10.4,3.5-29.6,9.1-54.3,10.1-24.7,1-41.7-3.2-54.6-5.7-12.8-2.5-24.9-5.7-36.3-9.6s-23.9-9.9-37.8-17.8c-13.8-7.9-27.6-17.5-41.5-28.9-13.8-11.4-15.4-14.4-22.9-15.7-7.5-1.2-11.9-.5-15.9,3-3.9,3.5-6.3,7.3-6.8,12.8-.5,5.4,1.6,12,5.6,16.9,3.9,4.9,37.3,38.8,100,101.5,62.7,62.7,94.8,94.1,96.3,94.1s62.7-60,183.7-180c121-120,185.9-185.4,194.8-196.3,8.9-10.9,17-23.2,24.4-37,7.4-13.8,13.3-30.1,17.8-48.9s6.7-36.3,6.7-52.6-1.7-34.6-5.2-54.8c-3.5-20.2-8.1-37.8-14.1-52.6-5.9-14.8-12.8-27.6-20.7-38.5-7.9-10.9-18-22.2-30.4-34.1s-25.9-22.5-40.7-31.9-28.9-16.8-42.2-22.2c-13.3-5.4-26.9-9.6-40.7-12.6-13.8-3-25.7-4.7-35.6-5.2-9.9-.5-24.7.5-44.4,3s-38,6.9-54.8,13.3-34.3,15.8-52.6,28.1-67.9,59-148.9,140c-81,81-125.4,124.2-133.3,129.6-7.9,5.4-15.8,9.4-23.7,11.9s-18,4-30.4,4.4-20.7.2-25.2-.7-10.4-3.2-17.8-6.7c-7.4-3.5-14.3-8.1-20.7-14.1s-11.9-12.6-16.3-20-7.9-15.8-10.4-25.2c-2.5-9.4-3.5-20.7-3-34.1.5-13.3,2.7-27.2,6.7-41.5s9.6-27.9,17-40.7c7.4-12.8,15.6-24.2,24.4-34.1s17.8-18.3,26.7-25.2c8.9-6.9,18.5-13.1,28.9-18.5,10.4-5.4,25.4-10.6,45.2-15.6,19.8-4.9,36.5-7.4,50.4-7.4s26.4,1.2,37.8,3.7c11.4,2.5,24.2,6.4,38.5,11.9,14.3,5.4,14.6,7.4,29.6,14.1,6.3,2.8,13.5,5.6,23.1,1.8,5.5-2.2,10.8-8.6,11.2-17,.5-11.8-6.7-19.6-24.9-28.3-18.3-8.8-33-15.5-49.3-20.9-16.3-5.4-34.6-8.9-54.8-10.4-20.2-1.5-35.6-1.5-45.9,0h0ZM-1183.3,855c.4,5.2-.4,17.5-.4,38.7s-1.3,30,0,31.8c1.3,1.8,5.7,1.5,6.7.1s.9-12.2,1.4-36.4c.2-10.3.4-17.8.7-23.6.3-7.2-.4-12.3,1.6-12.3,3.5,0,8.7.5,11.6,3.1,2.9,2.6,3.7,3.9,4.1,7.3.4,3.4-1,5.8-3,7.8-2,2-3,2.5-5.4,4-2.4,1.5-3.8,2.1-4.3,3.6s.4,9,7.3,22.8c6.9,13.8,11.1,20.7,12.6,22.2,1.4,1.5,3.5,1.1,4.2.8.6-.3,2.1-1,1.6-4-.5-3-4.5-10.4-9.4-19.8s-8.2-15.3-8.2-17.3,2.5-4.5,6-7.9c3.5-3.5,5.2-7.7,5.2-12.6s-1.6-10.4-6-13.9-8.4-4-15.5-3.9c-7.1.1-11.1,4.3-10.7,9.4h0ZM-1234.8,883.3c-.3,12.7.2,22.3.9,28.9.2,2.5.3,5.2.9,7,.6,2,1.8,2.9,2.7,3.4,3.5,2,7.2,3,11.1,3s7.6-.7,11.1-2.2c3.5-1.5,6.4-3.5,8.9-5.9,2.5-2.5,4.2-5.2,5.2-8.2,1-3,1.5-7.7,0-13.7-1.5-5.9-5-9.6-8.9-11.5-2-1-3.9-2-5.9-3,1-1.2,2-2.5,3-3.7,2-2.5,3.2-5.4,3.7-8.9s-.5-7.2-3-11.1c-.4-.7-.9-1.4-1.4-2-2.1-2.8-4.2-4.5-6.8-6.1-3.1-1.9-7.2-2-12.6-2.2-5.8-.2-7-.2-7.4,4.8-.4,6.1-1.2,16.9-1.5,31.5h0ZM-1228.1,853c3.5.1,5.1-.1,7.1.2,4.1.7,7.5,3.2,9.5,6.1,2,3,2.1,7,1.6,9.9-.5,3-3.2,4.9-6.3,7.7-3.1,2.7-3.2,3-3.2,4.5s2.1,2.9,6.5,4.5,9.6,4.3,11.5,7.8c2,3.5,2.5,7.2,1.5,11.1s-3,6.9-5.9,8.9c-3,2-5.9,3.2-8.9,3.7s-6.4.3-8.5-.3c-2.1-.6-4.2-2.2-4.2-2.2,0,0-1.7-15-1.3-31.5.2-10.1.5-20.2.7-30.4h0ZM-1134.8,921.1v5.9h6.7c2.2,0,3.1,0,5.3,0,.1-2,0-5,0-7,0-5.2-3.4-4.8-6.8-4.8h-5.2v5.9h0Z"/>
      </g>
      <g id="Layer-1-6">
        <path class="cls-6" d="M-953.7,72.8c-15.1,0-13.1,0-13.1,0,0,0,.1-1.1-.5,29.7-.6,29.8-.4,29.7-.4,29.7,0,0-.2.2-28.4.2-30.1,0-29.3,0-29.3,0,0,0,0-2.4-.2,21.3s-.2,20.8-.2,20.8c0,0,11.7.4,30,.3,27.9-.2,18.8,0,28,0,0,9.2.1-65.1-.2,27.7-.1,31,0,30.9,0,30.9,0,0,7.9,0,23.8,0,21.7,0,21.6.1,21.6.1,0-4,0,.1.2-29.6.3-30.5.2-29,.2-29,0,0,0,0,29,.3,27.8.3,27.9.6,27.9.6,0,0,0,1.2.2-25.5.2-19.8,0-18.7,0-18.7,0,0,1.5,0-28.3,0-28.4,0-28.3.1-28.3.1,0,0-.1,3.7.3-29.8.4-36.9.3-27.8.3-28.6,0,0-8.9-.4-17.4-.4-6.3,0-7.5,0-15.2-.1h0ZM-691,160.5c-10.4,1.5-22.8,4.5-37.1,8.9-14.3,4.5-27.2,9.4-38.6,14.8-11.4,5.4-23,12.4-34.9,20.8-11.9,8.4-23.8,18.8-35.6,31.2-11.9,12.4-21.3,23.5-28.2,33.4-6.9,9.9-13.1,20.8-18.6,32.7-5.4,11.9-9.9,23.8-13.4,35.6s-5.9,22.8-7.4,32.7c-1.5,9.9-2.2,21.3-2.2,34.2s1.5,27.2,4.5,43.1,6.2,28.2,9.7,37.1c3.5,8.9,7.4,17.3,11.9,25.2,4.5,7.9,12.6,19.3,24.5,34.2s27,31.4,45.3,49.8l27.5,27.5,181.9-181.9c121.3-121.3,189.3-187.4,204.2-198.3s25.7-18.1,32.7-21.5c6.9-3.5,17.1-6.9,30.4-10.4,13.4-3.5,25.5-5.4,36.4-5.9s24.8.7,41.6,3.7,32.2,7.4,46,13.4c13.9,5.9,27.5,13.6,40.8,23,13.4,9.4,24.5,18.8,33.4,28.2,8.9,9.4,16.6,19.8,23,31.2,6.4,11.4,11.4,21.8,14.8,31.2,3.5,9.4,6.4,20.1,8.9,31.9,2.5,11.9,3.7,24.8,3.7,38.6s-1.5,27.2-4.5,40.1c-3,12.9-7.7,25.7-14.1,38.6s-17.1,28-31.9,45.3c-14.8,17.3-43.3,47.3-85.4,89.8-42.1,42.6-69.1,69.6-80.9,80.9-11.9,11.4-24,21.8-36.4,31.2-12.4,9.4-23.5,16.8-33.4,22.3-9.9,5.4-20.1,9.9-30.4,13.4-10.4,3.5-29.7,9.2-54.5,10.2-24.8,1-41.8-3.2-54.7-5.7s-25-5.7-36.4-9.7c-11.4-4-24-9.9-37.9-17.8-13.9-7.9-27.7-17.6-41.6-29s-15.4-14.4-22.9-15.7c-7.5-1.2-12-.4-15.9,3-4,3.5-6.3,7.4-6.8,12.8-.5,5.4,1.7,12,5.6,17s37.4,38.9,100.2,101.7c62.9,62.9,95,94.3,96.5,94.3s62.9-60.2,184.2-180.4c121.3-120.3,186.4-185.9,195.3-196.8s17.1-23.3,24.5-37.1c7.4-13.9,13.4-30.2,17.8-49,4.5-18.8,6.7-36.4,6.7-52.7s-1.7-34.7-5.2-54.9c-3.5-20.3-8.2-37.9-14.1-52.7s-12.9-27.7-20.8-38.6-18.1-22.3-30.4-34.2c-12.4-11.9-26-22.5-40.8-31.9-14.8-9.4-29-16.8-42.3-22.3-13.4-5.4-27-9.7-40.8-12.6s-25.7-4.7-35.6-5.2c-9.9-.5-24.8.5-44.6,3-19.8,2.5-38.1,6.9-54.9,13.4s-34.4,15.8-52.7,28.2-68.1,59.2-149.2,140.3c-81.2,81.2-125.7,124.5-133.7,129.9-7.9,5.4-15.8,9.4-23.8,11.9s-18.1,4-30.4,4.5c-12.4.5-20.8.2-25.2-.7s-10.4-3.2-17.8-6.7c-7.4-3.5-14.4-8.2-20.8-14.1-6.4-5.9-11.9-12.6-16.3-20.1s-7.9-15.8-10.4-25.2-3.5-20.8-3-34.2c.5-13.4,2.7-27.2,6.7-41.6,4-14.3,9.7-28,17.1-40.8,7.4-12.9,15.6-24.3,24.5-34.2s17.8-18.3,26.7-25.2,18.6-13.1,29-18.6c10.4-5.4,25.5-10.6,45.3-15.6,19.8-4.9,36.6-7.4,50.5-7.4s26.5,1.2,37.9,3.7c11.4,2.5,24.3,6.4,38.6,11.9,14.3,5.4,14.6,7.4,29.7,14.1,6.3,2.8,13.5,5.7,23.1,1.8,5.5-2.2,10.8-8.6,11.2-17,.5-11.8-6.7-19.6-25-28.4s-33.1-15.6-49.4-21c-16.3-5.4-34.7-8.9-54.9-10.4-20.3-1.5-35.6-1.5-46,0h0ZM-144.8,861.3c.3,5.2-.4,17.5-.4,38.8s-1.3,30.1,0,31.9c1.3,1.8,5.7,1.6,6.8.1s.9-12.3,1.4-36.5c.2-10.3.4-17.8.7-23.7.3-7.2-.4-12.3,1.6-12.3,3.5,0,8.8.5,11.6,3.1,2.9,2.7,3.7,3.9,4.2,7.3.4,3.4-1,5.8-3,7.8s-3,2.5-5.5,4-3.8,2.1-4.3,3.6c-.5,1.5.4,9,7.3,22.8,6.9,13.9,11.2,20.7,12.6,22.3s3.5,1.1,4.2.8c.6-.3,2.1-1,1.6-4s-4.5-10.4-9.4-19.8c-4.9-9.4-8.2-15.3-8.2-17.3s2.5-4.5,6-7.9,5.2-7.7,5.2-12.6-1.6-10.4-6-13.9c-4.5-3.5-8.4-4-15.5-3.9s-11.1,4.3-10.7,9.5h0ZM-196.4,889.7c-.3,12.7.2,22.3.8,28.9.2,2.5.3,5.2.9,7,.7,2,1.8,2.9,2.7,3.4,3.5,2,7.2,3,11.1,3s7.7-.7,11.1-2.2c3.5-1.5,6.4-3.5,8.9-5.9,2.5-2.5,4.2-5.2,5.2-8.2,1-3,1.5-7.7,0-13.7-1.5-5.9-5-9.6-9-11.6l-5.9-3c1-1.2,2-2.5,3-3.7,2-2.5,3.2-5.4,3.7-8.9.5-3.5-.5-7.2-3-11.1-.4-.7-.9-1.4-1.4-2-2.1-2.8-4.2-4.6-6.8-6.2-3.1-1.9-7.2-2.1-12.6-2.2-5.8-.2-7.1-.2-7.4,4.8-.4,6.2-1.2,16.9-1.5,31.6h0ZM-189.7,859.3c3.5.1,5.1-.1,7.1.2,4.1.7,7.5,3.2,9.5,6.2s2.1,7,1.6,10c-.5,3-3.2,4.9-6.3,7.7-3.1,2.7-3.2,3-3.2,4.5s2.1,2.9,6.6,4.6c4.4,1.7,9.6,4.3,11.6,7.8,2,3.5,2.5,7.2,1.5,11.1-1,4-3,6.9-5.9,8.9s-5.9,3.2-8.9,3.7c-3,.5-6.4.3-8.5-.3-2.1-.6-4.2-2.3-4.2-2.3,0,0-1.7-15-1.3-31.6.2-10.2.5-20.3.7-30.4h0ZM-96.2,927.6v5.9h6.7c2.2,0,3.1,0,5.3,0,.1-2,0-5,0-7,0-5.2-3.4-4.8-6.8-4.8h-5.2v5.9h0Z"/>
      </g>
    </g>
  </g>
</svg>